<svg xmlns="http://www.w3.org/2000/svg" xmlns:xlink="http://www.w3.org/1999/xlink" width="690" height="600" viewBox="0 0 690 600">
<defs>
<linearGradient id="bg" x1="0" y1="0" x2="1" y2="1"><stop offset="0" stop-color="#0B0716"/><stop offset=".55" stop-color="#110A20"/><stop offset="1" stop-color="#160E2A"/></linearGradient>
<linearGradient id="gold" x1="0" y1="0" x2="1" y2="0"><stop offset="0" stop-color="#A78BFA"/><stop offset=".5" stop-color="#C084FC"/><stop offset="1" stop-color="#F472B6"/></linearGradient>
<linearGradient id="goldLine" x1="0" y1="0" x2="1" y2="1"><stop offset="0" stop-color="#A78BFA"/><stop offset=".5" stop-color="#7C3AED" stop-opacity=".35"/><stop offset="1" stop-color="#F472B6"/></linearGradient>
<linearGradient id="sweep" x1="0" y1="0" x2="1" y2="0"><stop offset="0" stop-color="#C084FC" stop-opacity="0"/><stop offset=".5" stop-color="#F5E8FF" stop-opacity=".09"/><stop offset="1" stop-color="#C084FC" stop-opacity="0"/></linearGradient>
<radialGradient id="halo"><stop offset="0" stop-color="#A78BFA" stop-opacity=".38"/><stop offset="1" stop-color="#F472B6" stop-opacity="0"/></radialGradient>
<filter id="glow" x="-20%" y="-20%" width="140%" height="140%"><feGaussianBlur stdDeviation="3" result="b"/><feMerge><feMergeNode in="b"/><feMergeNode in="SourceGraphic"/></feMerge></filter>
<pattern id="grid" width="40" height="40" patternUnits="userSpaceOnUse"><path d="M40 0H0V40" fill="none" stroke="#A78BFA" stroke-opacity=".06"/></pattern>
</defs>
<clipPath id="clip"><rect width="690" height="600" rx="22"/></clipPath>
<g clip-path="url(#clip)"><rect width="690" height="600" fill="url(#bg)"/><rect width="690" height="600" fill="url(#grid)"/><rect x="-690" y="0" width="414" height="600" fill="url(#sweep)"><animate attributeName="x" from="-690" to="966" dur="7s" repeatCount="indefinite"/></rect></g>
<rect x="1" y="1" width="688" height="598" rx="21" fill="none" stroke="url(#goldLine)" stroke-opacity=".6" stroke-width="1.5"/>
<text x="345.0" y="62" font-family="'Segoe UI', -apple-system, BlinkMacSystemFont, 'Helvetica Neue', Arial, sans-serif" font-size="34" font-weight="700" fill="#F1ECFF" text-anchor="middle" letter-spacing="0" >GitHub Activity</text><rect x="275.0" y="78" width="140" height="3" rx="1.5" fill="url(#gold)"/><text x="345.0" y="104" font-family="'SFMono-Regular', Consolas, 'Liberation Mono', Menlo, monospace" font-size="12" font-weight="600" fill="#8B80A8" text-anchor="middle" letter-spacing="4" >PROFILE SIGNAL</text><rect x="40.0" y="132" width="194.0" height="72" rx="12" fill="#130C24" fill-opacity=".85" stroke="url(#goldLine)" stroke-opacity=".55"/><rect x="54.0" y="146" width="44" height="44" rx="11" fill="#A78BFA" fill-opacity=".08" stroke="#A78BFA" stroke-opacity=".5"/><g transform="translate(65.0 157.0) scale(0.9167)" fill="none" stroke="#F472B6" stroke-width="1.96" stroke-linecap="round" stroke-linejoin="round"><path d="M8.5 14.5A2.5 2.5 0 0 0 11 12c0-1.38-.5-2-1-3-1.072-2.143-.224-4.054 2-6 .5 2.5 2 4.9 4 6.5 2 1.6 3 3.5 3 5.5a7 7 0 1 1-14 0c0-1.153.433-2.294 1-3a2.5 2.5 0 0 0 2.5 2.5z"/></g><text x="110.0" y="170" font-family="'Segoe UI', -apple-system, BlinkMacSystemFont, 'Helvetica Neue', Arial, sans-serif" font-size="22" font-weight="800" fill="#F472B6" text-anchor="start" letter-spacing="0" >1,445</text><text x="110.0" y="189" font-family="'Segoe UI', -apple-system, BlinkMacSystemFont, 'Helvetica Neue', Arial, sans-serif" font-size="11.5" font-weight="400" fill="#8B80A8" text-anchor="start" letter-spacing="0" >Contributions</text><rect x="248.0" y="132" width="194.0" height="72" rx="12" fill="#130C24" fill-opacity=".85" stroke="url(#goldLine)" stroke-opacity=".55"/><rect x="262.0" y="146" width="44" height="44" rx="11" fill="#A78BFA" fill-opacity=".08" stroke="#A78BFA" stroke-opacity=".5"/><g transform="translate(273.0 157.0) scale(0.9167)" fill="none" stroke="#F472B6" stroke-width="1.96" stroke-linecap="round" stroke-linejoin="round"><path d="M4 19.5v-15A2.5 2.5 0 0 1 6.5 2H19a1 1 0 0 1 1 1v18a1 1 0 0 1-1 1H6.5a1 1 0 0 1 0-5H20"/></g><text x="318.0" y="170" font-family="'Segoe UI', -apple-system, BlinkMacSystemFont, 'Helvetica Neue', Arial, sans-serif" font-size="22" font-weight="800" fill="#F472B6" text-anchor="start" letter-spacing="0" >15</text><text x="318.0" y="189" font-family="'Segoe UI', -apple-system, BlinkMacSystemFont, 'Helvetica Neue', Arial, sans-serif" font-size="11.5" font-weight="400" fill="#8B80A8" text-anchor="start" letter-spacing="0" >Public repos</text><rect x="456.0" y="132" width="194.0" height="72" rx="12" fill="#130C24" fill-opacity=".85" stroke="url(#goldLine)" stroke-opacity=".55"/><rect x="470.0" y="146" width="44" height="44" rx="11" fill="#A78BFA" fill-opacity=".08" stroke="#A78BFA" stroke-opacity=".5"/><g transform="translate(481.0 157.0) scale(0.9167)" fill="none" stroke="#F472B6" stroke-width="1.96" stroke-linecap="round" stroke-linejoin="round"><path d="M11.525 2.295a.53.53 0 0 1 .95 0l2.31 4.679a2.123 2.123 0 0 0 1.595 1.16l5.166.756a.53.53 0 0 1 .294.904l-3.736 3.638a2.123 2.123 0 0 0-.611 1.878l.882 5.14a.53.53 0 0 1-.771.56l-4.618-2.428a2.122 2.122 0 0 0-1.973 0L6.396 21.01a.53.53 0 0 1-.77-.56l.881-5.139a2.122 2.122 0 0 0-.611-1.879L2.16 9.795a.53.53 0 0 1 .294-.906l5.165-.755a2.122 2.122 0 0 0 1.597-1.16z"/></g><text x="526.0" y="170" font-family="'Segoe UI', -apple-system, BlinkMacSystemFont, 'Helvetica Neue', Arial, sans-serif" font-size="22" font-weight="800" fill="#F472B6" text-anchor="start" letter-spacing="0" >6</text><text x="526.0" y="189" font-family="'Segoe UI', -apple-system, BlinkMacSystemFont, 'Helvetica Neue', Arial, sans-serif" font-size="11.5" font-weight="400" fill="#8B80A8" text-anchor="start" letter-spacing="0" >Stars</text><rect x="40.0" y="218" width="194.0" height="72" rx="12" fill="#130C24" fill-opacity=".85" stroke="url(#goldLine)" stroke-opacity=".55"/><rect x="54.0" y="232" width="44" height="44" rx="11" fill="#A78BFA" fill-opacity=".08" stroke="#A78BFA" stroke-opacity=".5"/><g transform="translate(65.0 243.0) scale(0.9167)" fill="none" stroke="#F472B6" stroke-width="1.96" stroke-linecap="round" stroke-linejoin="round"><path d="M16 21v-2a4 4 0 0 0-4-4H6a4 4 0 0 0-4 4v2"/><path d="M16 3.128a4 4 0 0 1 0 7.744"/><path d="M22 21v-2a4 4 0 0 0-3-3.87"/><circle cx="9" cy="7" r="4"/></g><text x="110.0" y="256" font-family="'Segoe UI', -apple-system, BlinkMacSystemFont, 'Helvetica Neue', Arial, sans-serif" font-size="22" font-weight="800" fill="#F472B6" text-anchor="start" letter-spacing="0" >5</text><text x="110.0" y="275" font-family="'Segoe UI', -apple-system, BlinkMacSystemFont, 'Helvetica Neue', Arial, sans-serif" font-size="11.5" font-weight="400" fill="#8B80A8" text-anchor="start" letter-spacing="0" >Followers</text><rect x="248.0" y="218" width="194.0" height="72" rx="12" fill="#130C24" fill-opacity=".85" stroke="url(#goldLine)" stroke-opacity=".55"/><rect x="262.0" y="232" width="44" height="44" rx="11" fill="#A78BFA" fill-opacity=".08" stroke="#A78BFA" stroke-opacity=".5"/><g transform="translate(273.0 243.0) scale(0.9167)" fill="none" stroke="#F472B6" stroke-width="1.96" stroke-linecap="round" stroke-linejoin="round"><path d="M16 7h6v6"/><path d="m22 7-8.5 8.5-5-5L2 17"/></g><text x="318.0" y="256" font-family="'Segoe UI', -apple-system, BlinkMacSystemFont, 'Helvetica Neue', Arial, sans-serif" font-size="22" font-weight="800" fill="#F472B6" text-anchor="start" letter-spacing="0" >8d</text><text x="318.0" y="275" font-family="'Segoe UI', -apple-system, BlinkMacSystemFont, 'Helvetica Neue', Arial, sans-serif" font-size="11.5" font-weight="400" fill="#8B80A8" text-anchor="start" letter-spacing="0" >Longest streak</text><rect x="456.0" y="218" width="194.0" height="72" rx="12" fill="#130C24" fill-opacity=".85" stroke="url(#goldLine)" stroke-opacity=".55"/><rect x="470.0" y="232" width="44" height="44" rx="11" fill="#A78BFA" fill-opacity=".08" stroke="#A78BFA" stroke-opacity=".5"/><g transform="translate(481.0 243.0) scale(0.9167)" fill="none" stroke="#F472B6" stroke-width="1.96" stroke-linecap="round" stroke-linejoin="round"><path d="M4 14a1 1 0 0 1-.78-1.63l9.9-10.2a.5.5 0 0 1 .86.46l-1.92 6.02A1 1 0 0 0 13 10h7a1 1 0 0 1 .78 1.63l-9.9 10.2a.5.5 0 0 1-.86-.46l1.92-6.02A1 1 0 0 0 11 14z"/></g><text x="526.0" y="256" font-family="'Segoe UI', -apple-system, BlinkMacSystemFont, 'Helvetica Neue', Arial, sans-serif" font-size="22" font-weight="800" fill="#F472B6" text-anchor="start" letter-spacing="0" >0d</text><text x="526.0" y="275" font-family="'Segoe UI', -apple-system, BlinkMacSystemFont, 'Helvetica Neue', Arial, sans-serif" font-size="11.5" font-weight="400" fill="#8B80A8" text-anchor="start" letter-spacing="0" >Current streak</text><rect x="40" y="316" width="610" height="248" rx="12" fill="#130C24" fill-opacity=".85" stroke="url(#goldLine)" stroke-opacity=".55"/><text x="64" y="350" font-family="'SFMono-Regular', Consolas, 'Liberation Mono', Menlo, monospace" font-size="11.5" font-weight="600" fill="#8B80A8" text-anchor="start" letter-spacing="3" >MOST USED LANGUAGES</text><text x="64" y="386" font-family="'Segoe UI', -apple-system, BlinkMacSystemFont, 'Helvetica Neue', Arial, sans-serif" font-size="14.5" font-weight="600" fill="#F1ECFF" text-anchor="start" letter-spacing="0" >HTML</text><text x="626" y="386" font-family="'Segoe UI', -apple-system, BlinkMacSystemFont, 'Helvetica Neue', Arial, sans-serif" font-size="14.5" font-weight="700" fill="#F472B6" text-anchor="end" letter-spacing="0" >38.5%</text><rect x="64" y="397" width="562" height="6" rx="3" fill="#fff" fill-opacity=".06"/><rect x="64" y="397" width="216.4" height="6" rx="3" fill="#F472B6"><animate attributeName="width" from="0" to="216.4" dur="1.4s" begin="0.0s" fill="freeze"/></rect><text x="64" y="432" font-family="'Segoe UI', -apple-system, BlinkMacSystemFont, 'Helvetica Neue', Arial, sans-serif" font-size="14.5" font-weight="600" fill="#F1ECFF" text-anchor="start" letter-spacing="0" >Python</text><text x="626" y="432" font-family="'Segoe UI', -apple-system, BlinkMacSystemFont, 'Helvetica Neue', Arial, sans-serif" font-size="14.5" font-weight="700" fill="#A78BFA" text-anchor="end" letter-spacing="0" >30.8%</text><rect x="64" y="443" width="562" height="6" rx="3" fill="#fff" fill-opacity=".06"/><rect x="64" y="443" width="173.1" height="6" rx="3" fill="#A78BFA"><animate attributeName="width" from="0" to="173.1" dur="1.4s" begin="0.15s" fill="freeze"/></rect><text x="64" y="478" font-family="'Segoe UI', -apple-system, BlinkMacSystemFont, 'Helvetica Neue', Arial, sans-serif" font-size="14.5" font-weight="600" fill="#F1ECFF" text-anchor="start" letter-spacing="0" >Vue</text><text x="626" y="478" font-family="'Segoe UI', -apple-system, BlinkMacSystemFont, 'Helvetica Neue', Arial, sans-serif" font-size="14.5" font-weight="700" fill="#67E8F9" text-anchor="end" letter-spacing="0" >15.4%</text><rect x="64" y="489" width="562" height="6" rx="3" fill="#fff" fill-opacity=".06"/><rect x="64" y="489" width="86.5" height="6" rx="3" fill="#67E8F9"><animate attributeName="width" from="0" to="86.5" dur="1.4s" begin="0.3s" fill="freeze"/></rect><text x="64" y="524" font-family="'Segoe UI', -apple-system, BlinkMacSystemFont, 'Helvetica Neue', Arial, sans-serif" font-size="14.5" font-weight="600" fill="#F1ECFF" text-anchor="start" letter-spacing="0" >TypeScript</text><text x="626" y="524" font-family="'Segoe UI', -apple-system, BlinkMacSystemFont, 'Helvetica Neue', Arial, sans-serif" font-size="14.5" font-weight="700" fill="#34D399" text-anchor="end" letter-spacing="0" >7.7%</text><rect x="64" y="535" width="562" height="6" rx="3" fill="#fff" fill-opacity=".06"/><rect x="64" y="535" width="43.3" height="6" rx="3" fill="#34D399"><animate attributeName="width" from="0" to="43.3" dur="1.4s" begin="0.44999999999999996s" fill="freeze"/></rect>
</svg>
