<svg xmlns="http://www.w3.org/2000/svg" xmlns:xlink="http://www.w3.org/1999/xlink" width="1400" height="600" viewBox="0 0 1400 600">
<defs>
<linearGradient id="bg" x1="0" y1="0" x2="1" y2="1"><stop offset="0" stop-color="#0B0716"/><stop offset=".55" stop-color="#110A20"/><stop offset="1" stop-color="#160E2A"/></linearGradient>
<linearGradient id="gold" x1="0" y1="0" x2="1" y2="0"><stop offset="0" stop-color="#A78BFA"/><stop offset=".5" stop-color="#C084FC"/><stop offset="1" stop-color="#F472B6"/></linearGradient>
<linearGradient id="goldLine" x1="0" y1="0" x2="1" y2="1"><stop offset="0" stop-color="#A78BFA"/><stop offset=".5" stop-color="#7C3AED" stop-opacity=".35"/><stop offset="1" stop-color="#F472B6"/></linearGradient>
<linearGradient id="sweep" x1="0" y1="0" x2="1" y2="0"><stop offset="0" stop-color="#C084FC" stop-opacity="0"/><stop offset=".5" stop-color="#F5E8FF" stop-opacity=".09"/><stop offset="1" stop-color="#C084FC" stop-opacity="0"/></linearGradient>
<radialGradient id="halo"><stop offset="0" stop-color="#A78BFA" stop-opacity=".38"/><stop offset="1" stop-color="#F472B6" stop-opacity="0"/></radialGradient>
<filter id="glow" x="-20%" y="-20%" width="140%" height="140%"><feGaussianBlur stdDeviation="3" result="b"/><feMerge><feMergeNode in="b"/><feMergeNode in="SourceGraphic"/></feMerge></filter>
<pattern id="grid" width="40" height="40" patternUnits="userSpaceOnUse"><path d="M40 0H0V40" fill="none" stroke="#A78BFA" stroke-opacity=".06"/></pattern>
</defs>
<clipPath id="clip"><rect width="1400" height="600" rx="22"/></clipPath>
<g clip-path="url(#clip)"><rect width="1400" height="600" fill="url(#bg)"/><rect width="1400" height="600" fill="url(#grid)"/><rect x="-1400" y="0" width="840" height="600" fill="url(#sweep)"><animate attributeName="x" from="-1400" to="1960" dur="7s" repeatCount="indefinite"/></rect></g>
<rect x="1" y="1" width="1398" height="598" rx="21" fill="none" stroke="url(#goldLine)" stroke-opacity=".6" stroke-width="1.5"/>
<text x="700.0" y="62" font-family="'Segoe UI', -apple-system, BlinkMacSystemFont, 'Helvetica Neue', Arial, sans-serif" font-size="34" font-weight="700" fill="#F1ECFF" text-anchor="middle" letter-spacing="0" >Architecture</text><rect x="630.0" y="78" width="140" height="3" rx="1.5" fill="url(#gold)"/><text x="700.0" y="104" font-family="'SFMono-Regular', Consolas, 'Liberation Mono', Menlo, monospace" font-size="12" font-weight="600" fill="#8B80A8" text-anchor="middle" letter-spacing="4" >HOW I BUILD ERP SYSTEMS</text><text x="280" y="148" font-family="'SFMono-Regular', Consolas, 'Liberation Mono', Menlo, monospace" font-size="11" font-weight="600" fill="#8B80A8" text-anchor="middle" letter-spacing="3" >CLIENTS</text><text x="680" y="148" font-family="'SFMono-Regular', Consolas, 'Liberation Mono', Menlo, monospace" font-size="11" font-weight="600" fill="#8B80A8" text-anchor="middle" letter-spacing="3" >FRAPPE / ERPNEXT CORE</text><text x="1130" y="148" font-family="'SFMono-Regular', Consolas, 'Liberation Mono', Menlo, monospace" font-size="11" font-weight="600" fill="#8B80A8" text-anchor="middle" letter-spacing="3" >DATA &amp; AI</text><rect x="160" y="190" width="240" height="56" rx="10" fill="#130C24" fill-opacity=".85" stroke="url(#goldLine)" stroke-opacity=".55"/><g transform="translate(176 207) scale(0.9167)" fill="none" stroke="#F472B6" stroke-width="1.96" stroke-linecap="round" stroke-linejoin="round"><path d="M16 21v-2a4 4 0 0 0-4-4H6a4 4 0 0 0-4 4v2"/><path d="M16 3.128a4 4 0 0 1 0 7.744"/><path d="M22 21v-2a4 4 0 0 0-3-3.87"/><circle cx="9" cy="7" r="4"/></g><text x="210" y="215" font-family="'Segoe UI', -apple-system, BlinkMacSystemFont, 'Helvetica Neue', Arial, sans-serif" font-size="15" font-weight="700" fill="#F1ECFF" text-anchor="start" letter-spacing="0" >Users</text><text x="210" y="234" font-family="'Segoe UI', -apple-system, BlinkMacSystemFont, 'Helvetica Neue', Arial, sans-serif" font-size="12" font-weight="400" fill="#8B80A8" text-anchor="start" letter-spacing="0" >Desktop · Mobile</text><path d="M400 218 L560 218" stroke="#A78BFA" stroke-opacity=".55" stroke-width="1.6" stroke-dasharray="6 6" fill="none"><animate attributeName="stroke-dashoffset" from="24" to="0" dur="1.2s" begin="0.0s" repeatCount="indefinite"/></path><rect x="160" y="300" width="240" height="56" rx="10" fill="#130C24" fill-opacity=".85" stroke="url(#goldLine)" stroke-opacity=".55"/><g transform="translate(176 317) scale(0.9167)" fill="none" stroke="#F472B6" stroke-width="1.96" stroke-linecap="round" stroke-linejoin="round"><path d="m16 18 6-6-6-6"/><path d="m8 6-6 6 6 6"/></g><text x="210" y="325" font-family="'Segoe UI', -apple-system, BlinkMacSystemFont, 'Helvetica Neue', Arial, sans-serif" font-size="15" font-weight="700" fill="#F1ECFF" text-anchor="start" letter-spacing="0" >Vue.js / React</text><text x="210" y="344" font-family="'Segoe UI', -apple-system, BlinkMacSystemFont, 'Helvetica Neue', Arial, sans-serif" font-size="12" font-weight="400" fill="#8B80A8" text-anchor="start" letter-spacing="0" >Portals &amp; storefronts</text><path d="M400 328 L560 218" stroke="#A78BFA" stroke-opacity=".55" stroke-width="1.6" stroke-dasharray="6 6" fill="none"><animate attributeName="stroke-dashoffset" from="24" to="0" dur="1.2s" begin="0.2s" repeatCount="indefinite"/></path><rect x="160" y="410" width="240" height="56" rx="10" fill="#130C24" fill-opacity=".85" stroke="url(#goldLine)" stroke-opacity=".55"/><g transform="translate(176 427) scale(0.9167)" fill="none" stroke="#F472B6" stroke-width="1.96" stroke-linecap="round" stroke-linejoin="round"><circle cx="13.5" cy="6.5" r=".5"/><circle cx="17.5" cy="10.5" r=".5"/><circle cx="8.5" cy="7.5" r=".5"/><circle cx="6.5" cy="12.5" r=".5"/><path d="M12 2C6.5 2 2 6.5 2 12s4.5 10 10 10c.926 0 1.648-.746 1.648-1.688 0-.437-.18-.835-.437-1.125-.29-.289-.438-.652-.438-1.125a1.64 1.64 0 0 1 1.668-1.668h1.996c3.051 0 5.555-2.503 5.555-5.554C21.965 6.012 17.461 2 12 2z"/></g><text x="210" y="435" font-family="'Segoe UI', -apple-system, BlinkMacSystemFont, 'Helvetica Neue', Arial, sans-serif" font-size="15" font-weight="700" fill="#F1ECFF" text-anchor="start" letter-spacing="0" >ERPNext Desk</text><text x="210" y="454" font-family="'Segoe UI', -apple-system, BlinkMacSystemFont, 'Helvetica Neue', Arial, sans-serif" font-size="12" font-weight="400" fill="#8B80A8" text-anchor="start" letter-spacing="0" >White-labeled UI</text><path d="M400 438 L560 348" stroke="#A78BFA" stroke-opacity=".55" stroke-width="1.6" stroke-dasharray="6 6" fill="none"><animate attributeName="stroke-dashoffset" from="24" to="0" dur="1.2s" begin="0.4s" repeatCount="indefinite"/></path><rect x="560" y="190" width="280" height="56" rx="10" fill="#130C24" fill-opacity=".85" stroke="url(#goldLine)" stroke-opacity=".55"/><g transform="translate(576 207) scale(0.9167)" fill="none" stroke="#F472B6" stroke-width="1.96" stroke-linecap="round" stroke-linejoin="round"><path d="M12 22v-5"/><path d="M15 8V2"/><path d="M17 8a1 1 0 0 1 1 1v4a4 4 0 0 1-4 4h-4a4 4 0 0 1-4-4V9a1 1 0 0 1 1-1z"/><path d="M9 8V2"/></g><text x="610" y="215" font-family="'Segoe UI', -apple-system, BlinkMacSystemFont, 'Helvetica Neue', Arial, sans-serif" font-size="15" font-weight="700" fill="#F1ECFF" text-anchor="start" letter-spacing="0" >REST API Layer</text><text x="610" y="234" font-family="'Segoe UI', -apple-system, BlinkMacSystemFont, 'Helvetica Neue', Arial, sans-serif" font-size="12" font-weight="400" fill="#8B80A8" text-anchor="start" letter-spacing="0" >Whitelisted methods</text><path d="M700 246 L700 266" stroke="#A78BFA" stroke-opacity=".55" stroke-width="1.6" stroke-dasharray="6 6" fill="none"><animate attributeName="stroke-dashoffset" from="24" to="0" dur="1.2s" begin="0.0s" repeatCount="indefinite"/></path><rect x="560" y="266" width="280" height="56" rx="10" fill="#130C24" fill-opacity=".85" stroke="url(#goldLine)" stroke-opacity=".55"/><g transform="translate(576 283) scale(0.9167)" fill="none" stroke="#F472B6" stroke-width="1.96" stroke-linecap="round" stroke-linejoin="round"><path d="M12.83 2.18a2 2 0 0 0-1.66 0L2.6 6.08a1 1 0 0 0 0 1.83l8.58 3.91a2 2 0 0 0 1.66 0l8.58-3.9a1 1 0 0 0 0-1.83Z"/><path d="m22 17.65-9.17 4.16a2 2 0 0 1-1.66 0L2 17.65"/><path d="m22 12.65-9.17 4.16a2 2 0 0 1-1.66 0L2 12.65"/></g><text x="610" y="291" font-family="'Segoe UI', -apple-system, BlinkMacSystemFont, 'Helvetica Neue', Arial, sans-serif" font-size="15" font-weight="700" fill="#F1ECFF" text-anchor="start" letter-spacing="0" >Frappe Framework</text><text x="610" y="310" font-family="'Segoe UI', -apple-system, BlinkMacSystemFont, 'Helvetica Neue', Arial, sans-serif" font-size="12" font-weight="400" fill="#8B80A8" text-anchor="start" letter-spacing="0" >Python · Jinja</text><path d="M700 322 L700 342" stroke="#A78BFA" stroke-opacity=".55" stroke-width="1.6" stroke-dasharray="6 6" fill="none"><animate attributeName="stroke-dashoffset" from="24" to="0" dur="1.2s" begin="0.1s" repeatCount="indefinite"/></path><rect x="560" y="342" width="280" height="56" rx="10" fill="#130C24" fill-opacity=".85" stroke="url(#goldLine)" stroke-opacity=".55" filter="url(#glow)"/><g transform="translate(576 359) scale(0.9167)" fill="none" stroke="#F472B6" stroke-width="1.96" stroke-linecap="round" stroke-linejoin="round"><rect width="20" height="8" x="2" y="2" rx="2"/><rect width="20" height="8" x="2" y="14" rx="2"/><path d="M6 6h.01M6 18h.01"/></g><text x="610" y="367" font-family="'Segoe UI', -apple-system, BlinkMacSystemFont, 'Helvetica Neue', Arial, sans-serif" font-size="15" font-weight="700" fill="#F472B6" text-anchor="start" letter-spacing="0" >Custom DocTypes</text><text x="610" y="386" font-family="'Segoe UI', -apple-system, BlinkMacSystemFont, 'Helvetica Neue', Arial, sans-serif" font-size="12" font-weight="400" fill="#8B80A8" text-anchor="start" letter-spacing="0" >Modules &amp; permissions</text><path d="M700 398 L700 418" stroke="#A78BFA" stroke-opacity=".55" stroke-width="1.6" stroke-dasharray="6 6" fill="none"><animate attributeName="stroke-dashoffset" from="24" to="0" dur="1.2s" begin="0.2s" repeatCount="indefinite"/></path><rect x="560" y="418" width="280" height="56" rx="10" fill="#130C24" fill-opacity=".85" stroke="url(#goldLine)" stroke-opacity=".55"/><g transform="translate(576 435) scale(0.9167)" fill="none" stroke="#F472B6" stroke-width="1.96" stroke-linecap="round" stroke-linejoin="round"><rect width="8" height="8" x="3" y="3" rx="2"/><path d="M7 11v4a2 2 0 0 0 2 2h4"/><rect width="8" height="8" x="13" y="13" rx="2"/></g><text x="610" y="443" font-family="'Segoe UI', -apple-system, BlinkMacSystemFont, 'Helvetica Neue', Arial, sans-serif" font-size="15" font-weight="700" fill="#F1ECFF" text-anchor="start" letter-spacing="0" >Workflows &amp; Scripts</text><text x="610" y="462" font-family="'Segoe UI', -apple-system, BlinkMacSystemFont, 'Helvetica Neue', Arial, sans-serif" font-size="12" font-weight="400" fill="#8B80A8" text-anchor="start" letter-spacing="0" >Business logic</text><path d="M700 474 L700 494" stroke="#A78BFA" stroke-opacity=".55" stroke-width="1.6" stroke-dasharray="6 6" fill="none"><animate attributeName="stroke-dashoffset" from="24" to="0" dur="1.2s" begin="0.30000000000000004s" repeatCount="indefinite"/></path><rect x="560" y="494" width="280" height="56" rx="10" fill="#130C24" fill-opacity=".85" stroke="url(#goldLine)" stroke-opacity=".55"/><g transform="translate(576 511) scale(0.9167)" fill="none" stroke="#F472B6" stroke-width="1.96" stroke-linecap="round" stroke-linejoin="round"><path d="M8 2v3M16 2v3"/><rect x="3" y="3" width="18" height="18" rx="2"/><path d="M3 9h18"/></g><text x="610" y="519" font-family="'Segoe UI', -apple-system, BlinkMacSystemFont, 'Helvetica Neue', Arial, sans-serif" font-size="15" font-weight="700" fill="#F1ECFF" text-anchor="start" letter-spacing="0" >Scheduled Jobs</text><text x="610" y="538" font-family="'Segoe UI', -apple-system, BlinkMacSystemFont, 'Helvetica Neue', Arial, sans-serif" font-size="12" font-weight="400" fill="#8B80A8" text-anchor="start" letter-spacing="0" >Background tasks</text><rect x="1010" y="190" width="260" height="56" rx="10" fill="#130C24" fill-opacity=".85" stroke="url(#goldLine)" stroke-opacity=".55"/><g transform="translate(1026 207) scale(0.9167)" fill="none" stroke="#F472B6" stroke-width="1.96" stroke-linecap="round" stroke-linejoin="round"><ellipse cx="12" cy="5" rx="9" ry="3"/><path d="M3 5V19A9 3 0 0 0 21 19V5"/><path d="M3 12A9 3 0 0 0 21 12"/></g><text x="1060" y="215" font-family="'Segoe UI', -apple-system, BlinkMacSystemFont, 'Helvetica Neue', Arial, sans-serif" font-size="15" font-weight="700" fill="#F1ECFF" text-anchor="start" letter-spacing="0" >MariaDB</text><text x="1060" y="234" font-family="'Segoe UI', -apple-system, BlinkMacSystemFont, 'Helvetica Neue', Arial, sans-serif" font-size="12" font-weight="400" fill="#8B80A8" text-anchor="start" letter-spacing="0" >Primary database</text><rect x="1010" y="286" width="260" height="56" rx="10" fill="#130C24" fill-opacity=".85" stroke="url(#goldLine)" stroke-opacity=".55"/><g transform="translate(1026 303) scale(0.9167)" fill="none" stroke="#F472B6" stroke-width="1.96" stroke-linecap="round" stroke-linejoin="round"><path d="M4 14a1 1 0 0 1-.78-1.63l9.9-10.2a.5.5 0 0 1 .86.46l-1.92 6.02A1 1 0 0 0 13 10h7a1 1 0 0 1 .78 1.63l-9.9 10.2a.5.5 0 0 1-.86-.46l1.92-6.02A1 1 0 0 0 11 14z"/></g><text x="1060" y="311" font-family="'Segoe UI', -apple-system, BlinkMacSystemFont, 'Helvetica Neue', Arial, sans-serif" font-size="15" font-weight="700" fill="#F1ECFF" text-anchor="start" letter-spacing="0" >Redis</text><text x="1060" y="330" font-family="'Segoe UI', -apple-system, BlinkMacSystemFont, 'Helvetica Neue', Arial, sans-serif" font-size="12" font-weight="400" fill="#8B80A8" text-anchor="start" letter-spacing="0" >Cache &amp; queue</text><rect x="1010" y="382" width="260" height="56" rx="10" fill="#130C24" fill-opacity=".85" stroke="url(#goldLine)" stroke-opacity=".55" filter="url(#glow)"/><g transform="translate(1026 399) scale(0.9167)" fill="none" stroke="#F472B6" stroke-width="1.96" stroke-linecap="round" stroke-linejoin="round"><path d="M12 8V4H8"/><rect width="16" height="12" x="4" y="8" rx="2"/><path d="M2 14h2M20 14h2M15 13v2M9 13v2"/></g><text x="1060" y="407" font-family="'Segoe UI', -apple-system, BlinkMacSystemFont, 'Helvetica Neue', Arial, sans-serif" font-size="15" font-weight="700" fill="#F472B6" text-anchor="start" letter-spacing="0" >Platia Copilot</text><text x="1060" y="426" font-family="'Segoe UI', -apple-system, BlinkMacSystemFont, 'Helvetica Neue', Arial, sans-serif" font-size="12" font-weight="400" fill="#8B80A8" text-anchor="start" letter-spacing="0" >LLM · RAG · tool calling</text><rect x="1010" y="478" width="260" height="56" rx="10" fill="#130C24" fill-opacity=".85" stroke="url(#goldLine)" stroke-opacity=".55"/><g transform="translate(1026 495) scale(0.9167)" fill="none" stroke="#F472B6" stroke-width="1.96" stroke-linecap="round" stroke-linejoin="round"><path d="M12 22v-5"/><path d="M15 8V2"/><path d="M17 8a1 1 0 0 1 1 1v4a4 4 0 0 1-4 4h-4a4 4 0 0 1-4-4V9a1 1 0 0 1 1-1z"/><path d="M9 8V2"/></g><text x="1060" y="503" font-family="'Segoe UI', -apple-system, BlinkMacSystemFont, 'Helvetica Neue', Arial, sans-serif" font-size="15" font-weight="700" fill="#F1ECFF" text-anchor="start" letter-spacing="0" >Third-party Systems</text><text x="1060" y="522" font-family="'Segoe UI', -apple-system, BlinkMacSystemFont, 'Helvetica Neue', Arial, sans-serif" font-size="12" font-weight="400" fill="#8B80A8" text-anchor="start" letter-spacing="0" >Biometric · payments</text><path d="M840 370 L1010 218" stroke="#A78BFA" stroke-opacity=".55" stroke-width="1.6" stroke-dasharray="6 6" fill="none"><animate attributeName="stroke-dashoffset" from="24" to="0" dur="1.2s" begin="0.3s" repeatCount="indefinite"/></path><path d="M840 370 L1010 314" stroke="#A78BFA" stroke-opacity=".55" stroke-width="1.6" stroke-dasharray="6 6" fill="none"><animate attributeName="stroke-dashoffset" from="24" to="0" dur="1.2s" begin="0.5s" repeatCount="indefinite"/></path><path d="M840 218 L1010 410" stroke="#A78BFA" stroke-opacity=".55" stroke-width="1.6" stroke-dasharray="6 6" fill="none"><animate attributeName="stroke-dashoffset" from="24" to="0" dur="1.2s" begin="0.7s" repeatCount="indefinite"/></path><path d="M840 218 L1010 506" stroke="#A78BFA" stroke-opacity=".55" stroke-width="1.6" stroke-dasharray="6 6" fill="none"><animate attributeName="stroke-dashoffset" from="24" to="0" dur="1.2s" begin="0.9s" repeatCount="indefinite"/></path><text x="700.0" y="568" font-family="'SFMono-Regular', Consolas, 'Liberation Mono', Menlo, monospace" font-size="13" font-weight="400" fill="#8B80A8" text-anchor="middle" letter-spacing="1" >Built for scale · designed around real business processes</text>
</svg>
