<svg xmlns="http://www.w3.org/2000/svg" xmlns:xlink="http://www.w3.org/1999/xlink" width="270" height="72" viewBox="0 0 270 72">
<defs>
<linearGradient id="bg" x1="0" y1="0" x2="1" y2="1"><stop offset="0" stop-color="#0B0716"/><stop offset=".55" stop-color="#110A20"/><stop offset="1" stop-color="#160E2A"/></linearGradient>
<linearGradient id="gold" x1="0" y1="0" x2="1" y2="0"><stop offset="0" stop-color="#A78BFA"/><stop offset=".5" stop-color="#C084FC"/><stop offset="1" stop-color="#F472B6"/></linearGradient>
<linearGradient id="goldLine" x1="0" y1="0" x2="1" y2="1"><stop offset="0" stop-color="#A78BFA"/><stop offset=".5" stop-color="#7C3AED" stop-opacity=".35"/><stop offset="1" stop-color="#F472B6"/></linearGradient>
<linearGradient id="sweep" x1="0" y1="0" x2="1" y2="0"><stop offset="0" stop-color="#C084FC" stop-opacity="0"/><stop offset=".5" stop-color="#F5E8FF" stop-opacity=".09"/><stop offset="1" stop-color="#C084FC" stop-opacity="0"/></linearGradient>
<radialGradient id="halo"><stop offset="0" stop-color="#A78BFA" stop-opacity=".38"/><stop offset="1" stop-color="#F472B6" stop-opacity="0"/></radialGradient>
<filter id="glow" x="-20%" y="-20%" width="140%" height="140%"><feGaussianBlur stdDeviation="3" result="b"/><feMerge><feMergeNode in="b"/><feMergeNode in="SourceGraphic"/></feMerge></filter>
<pattern id="grid" width="40" height="40" patternUnits="userSpaceOnUse"><path d="M40 0H0V40" fill="none" stroke="#A78BFA" stroke-opacity=".06"/></pattern>
</defs>
<clipPath id="clip"><rect width="270" height="72" rx="16"/></clipPath>
<g clip-path="url(#clip)"><rect width="270" height="72" fill="url(#bg)"/><rect width="270" height="72" fill="url(#grid)"/></g>
<rect x="1" y="1" width="268" height="70" rx="15" fill="none" stroke="url(#goldLine)" stroke-opacity=".6" stroke-width="1.5"/>
<rect x="14" y="13" width="46" height="46" rx="11" fill="#A78BFA" fill-opacity=".08" stroke="#A78BFA" stroke-opacity=".5"/><g transform="translate(26.0 25.0) scale(0.9167)" fill="none" stroke="#F472B6" stroke-width="1.96" stroke-linecap="round" stroke-linejoin="round"><path d="M15 22v-4a4.8 4.8 0 0 0-1-3.5c3 0 6-2 6-5.5.08-1.25-.27-2.48-1-3.5.28-1.15.28-2.35 0-3.5 0 0-1 0-3 1.5-2.64-.5-5.36-.5-8 0C6 2 5 2 5 2c-.3 1.15-.3 2.35 0 3.5A5.403 5.403 0 0 0 4 9c0 3.5 3 5.5 6 5.5-.39.49-.68 1.05-.85 1.65-.17.6-.22 1.23-.15 1.85v4"/><path d="M9 18c-4.51 2-5-2-7-2"/></g><text x="74" y="34" font-family="'Segoe UI', -apple-system, BlinkMacSystemFont, 'Helvetica Neue', Arial, sans-serif" font-size="17" font-weight="700" fill="#F1ECFF" text-anchor="start" letter-spacing="0" >GitHub</text><text x="74" y="54" font-family="'SFMono-Regular', Consolas, 'Liberation Mono', Menlo, monospace" font-size="12" font-weight="500" fill="#8B80A8" text-anchor="start" letter-spacing="0" >@ahmedrazasahoo</text><text x="252" y="42" font-family="'Segoe UI', -apple-system, BlinkMacSystemFont, 'Helvetica Neue', Arial, sans-serif" font-size="18" font-weight="700" fill="#F472B6" text-anchor="end" letter-spacing="0" >↗</text>
</svg>
